<svg xmlns="http://www.w3.org/2000/svg" xmlns:xlink="http://www.w3.org/1999/xlink" width="1366" zoomAndPan="magnify" viewBox="0 0 1024.5 576" height="768" preserveAspectRatio="xMidYMid meet" version="1.0"><defs><g/><clipPath id="4c887a9521"><path d="M 15.839844 136 L 275 136 L 275 447.648438 L 15.839844 447.648438 Z M 15.839844 136 " clip-rule="nonzero"/></clipPath><clipPath id="bc4fa03d55"><path d="M 76 128.304688 L 335.183594 128.304688 L 335.183594 435 L 76 435 Z M 76 128.304688 " clip-rule="nonzero"/></clipPath></defs><g clip-path="url(#4c887a9521)"><path fill="#ffffff" d="M 175.535156 439.371094 C 92.054688 439.371094 24.164062 371.460938 24.164062 288 C 24.164062 223.753906 64.363281 168.75 120.953125 146.796875 L 219.875 299.644531 L 219.875 346.226562 L 228.863281 346.226562 L 228.863281 299.644531 L 274.464844 229.921875 L 274.464844 229.75 L 263.972656 229.75 L 224.375 290.980469 L 129.484375 143.78125 C 129.511719 143.777344 129.542969 143.761719 129.578125 143.757812 L 124.886719 136.53125 C 124.867188 136.539062 124.847656 136.546875 124.828125 136.554688 C 121.960938 137.511719 119.144531 138.550781 116.355469 139.683594 C 57.496094 163.242188 15.839844 220.824219 15.839844 288 C 15.839844 376.046875 87.46875 447.695312 175.535156 447.695312 C 194.773438 447.695312 213.230469 444.261719 230.324219 437.992188 L 224.199219 431.308594 C 208.914062 436.515625 192.5625 439.371094 175.535156 439.371094 Z M 175.535156 439.371094 " fill-opacity="1" fill-rule="nonzero"/></g><g clip-path="url(#bc4fa03d55)"><path fill="#ffffff" d="M 175.535156 128.304688 C 160.871094 128.304688 146.667969 130.324219 133.175781 134.03125 L 137.945312 141.375 C 149.972656 138.296875 162.550781 136.625 175.535156 136.625 C 259 136.625 326.910156 204.515625 326.910156 288 C 326.910156 348.023438 291.785156 400 241.011719 424.457031 L 128.355469 301.648438 C 153.8125 301.648438 166.3125 285 166.140625 266.03125 C 165.96875 247.894531 153.15625 229.757812 127.867188 229.757812 L 76.601562 229.757812 L 76.601562 346.234375 L 85.585938 346.234375 L 85.585938 238.082031 L 127.867188 238.082031 C 147.175781 238.082031 156.476562 252.21875 156.332031 265.863281 C 156.160156 282.171875 147.183594 293.644531 126.867188 293.644531 L 109.511719 293.644531 L 117.242188 302.136719 L 117.375 302.136719 L 232.695312 428.164062 C 232.675781 428.167969 232.65625 428.175781 232.632812 428.1875 L 238.597656 434.703125 C 238.617188 434.695312 238.636719 434.683594 238.65625 434.675781 C 241.433594 433.484375 244.191406 432.203125 246.867188 430.847656 C 299.207031 404.609375 335.21875 350.441406 335.21875 288.003906 C 335.21875 199.929688 263.582031 128.304688 175.535156 128.304688 Z M 175.535156 128.304688 " fill-opacity="1" fill-rule="nonzero"/></g><g fill="#ffffff" fill-opacity="1"><g transform="translate(353.926336, 261.01318)"><g><path d="M 48.046875 -9.921875 C 48.847656 -7.992188 49.25 -6.601562 49.25 -5.75 C 49.25 -3.726562 47.597656 -2.023438 44.296875 -0.640625 C 42.585938 0.109375 41.210938 0.484375 40.171875 0.484375 C 39.140625 0.484375 38.289062 0.226562 37.625 -0.28125 C 36.957031 -0.789062 36.460938 -1.3125 36.140625 -1.84375 C 35.609375 -2.851562 33.53125 -7.675781 29.90625 -16.3125 L 27.421875 -16.15625 L 17.34375 -16.15625 L 17.34375 -7.109375 C 17.34375 -5.890625 17.300781 -4.972656 17.21875 -4.359375 C 17.144531 -3.742188 16.894531 -3.035156 16.46875 -2.234375 C 15.71875 -0.796875 13.640625 -0.078125 10.234375 -0.078125 C 6.503906 -0.078125 4.316406 -1.0625 3.671875 -3.03125 C 3.359375 -3.9375 3.203125 -5.328125 3.203125 -7.203125 L 3.203125 -51.5625 C 3.203125 -52.789062 3.238281 -53.710938 3.3125 -54.328125 C 3.394531 -54.941406 3.648438 -55.648438 4.078125 -56.453125 C 4.828125 -57.890625 6.90625 -58.609375 10.3125 -58.609375 L 27.578125 -58.609375 C 32.273438 -58.609375 36.832031 -56.898438 41.25 -53.484375 C 43.382812 -51.835938 45.144531 -49.597656 46.53125 -46.765625 C 47.914062 -43.941406 48.609375 -40.800781 48.609375 -37.34375 C 48.609375 -31.3125 46.609375 -26.351562 42.609375 -22.46875 C 43.785156 -19.644531 45.597656 -15.460938 48.046875 -9.921875 Z M 17.34375 -30.296875 L 27.578125 -30.296875 C 29.128906 -30.296875 30.675781 -30.878906 32.21875 -32.046875 C 33.769531 -33.222656 34.546875 -34.984375 34.546875 -37.328125 C 34.546875 -39.679688 33.769531 -41.457031 32.21875 -42.65625 C 30.675781 -43.851562 29.078125 -44.453125 27.421875 -44.453125 L 17.34375 -44.453125 Z M 17.34375 -30.296875 "/></g></g></g><g fill="#ffffff" fill-opacity="1"><g transform="translate(407.815147, 261.01318)"><g><path d="M 49.734375 -57.484375 C 52.347656 -55.671875 53.65625 -53.910156 53.65625 -52.203125 C 53.65625 -51.191406 53.039062 -49.78125 51.8125 -47.96875 L 34.546875 -22.140625 L 34.546875 -6.875 C 34.546875 -5.644531 34.503906 -4.722656 34.421875 -4.109375 C 34.335938 -3.503906 34.082031 -2.800781 33.65625 -2 C 33.226562 -1.195312 32.507812 -0.632812 31.5 -0.3125 C 30.488281 0 29.128906 0.15625 27.421875 0.15625 C 25.710938 0.15625 24.351562 0 23.34375 -0.3125 C 22.332031 -0.632812 21.613281 -1.207031 21.1875 -2.03125 C 20.757812 -2.863281 20.503906 -3.582031 20.421875 -4.1875 C 20.347656 -4.800781 20.3125 -5.75 20.3125 -7.03125 L 20.3125 -22.140625 L 3.03125 -47.96875 C 1.8125 -49.78125 1.203125 -51.191406 1.203125 -52.203125 C 1.203125 -53.910156 2.375 -55.550781 4.71875 -57.125 C 7.0625 -58.695312 8.738281 -59.484375 9.75 -59.484375 C 10.757812 -59.484375 11.5625 -59.269531 12.15625 -58.84375 C 13.0625 -58.257812 14.019531 -57.164062 15.03125 -55.5625 L 27.421875 -35.734375 L 39.8125 -55.5625 C 40.820312 -57.164062 41.703125 -58.21875 42.453125 -58.71875 C 43.203125 -59.226562 44.066406 -59.484375 45.046875 -59.484375 C 46.035156 -59.484375 47.597656 -58.816406 49.734375 -57.484375 Z M 49.734375 -57.484375 "/></g></g></g><g fill="#ffffff" fill-opacity="1"><g transform="translate(466.101378, 261.01318)"><g><path d="M 46.453125 -46.765625 C 47.835938 -43.941406 48.53125 -40.796875 48.53125 -37.328125 C 48.53125 -33.867188 47.835938 -30.738281 46.453125 -27.9375 C 45.066406 -25.144531 43.28125 -22.921875 41.09375 -21.265625 C 36.664062 -17.859375 32.082031 -16.15625 27.34375 -16.15625 L 17.34375 -16.15625 L 17.34375 -7.109375 C 17.34375 -5.890625 17.300781 -4.972656 17.21875 -4.359375 C 17.144531 -3.742188 16.894531 -3.035156 16.46875 -2.234375 C 15.71875 -0.796875 13.640625 -0.078125 10.234375 -0.078125 C 6.503906 -0.078125 4.316406 -1.0625 3.671875 -3.03125 C 3.359375 -3.9375 3.203125 -5.328125 3.203125 -7.203125 L 3.203125 -51.5625 C 3.203125 -52.789062 3.238281 -53.710938 3.3125 -54.328125 C 3.394531 -54.941406 3.648438 -55.648438 4.078125 -56.453125 C 4.828125 -57.890625 6.90625 -58.609375 10.3125 -58.609375 L 27.421875 -58.609375 C 32.109375 -58.609375 36.664062 -56.898438 41.09375 -53.484375 C 43.28125 -51.835938 45.066406 -49.597656 46.453125 -46.765625 Z M 27.421875 -30.296875 C 29.023438 -30.296875 30.597656 -30.878906 32.140625 -32.046875 C 33.679688 -33.222656 34.453125 -34.984375 34.453125 -37.328125 C 34.453125 -39.679688 33.679688 -41.457031 32.140625 -42.65625 C 30.597656 -43.851562 29 -44.453125 27.34375 -44.453125 L 17.34375 -44.453125 L 17.34375 -30.296875 Z M 27.421875 -30.296875 "/></g></g></g><g fill="#ffffff" fill-opacity="1"><g transform="translate(520.070128, 261.01318)"><g><path d="M 31.8125 -41.65625 C 32.832031 -41.332031 33.675781 -40.785156 34.34375 -40.015625 C 35.007812 -39.242188 35.34375 -38.003906 35.34375 -36.296875 C 35.34375 -34.585938 34.832031 -32.71875 33.8125 -30.6875 C 32.800781 -28.664062 31.335938 -27.65625 29.421875 -27.65625 C 28.460938 -27.65625 27.539062 -27.867188 26.65625 -28.296875 C 25.78125 -28.722656 24.625 -28.9375 23.1875 -28.9375 C 21.75 -28.9375 20.398438 -28.429688 19.140625 -27.421875 C 17.890625 -26.410156 17.265625 -25.1875 17.265625 -23.75 L 17.265625 -6.953125 C 17.265625 -5.722656 17.222656 -4.800781 17.140625 -4.1875 C 17.066406 -3.582031 16.816406 -2.878906 16.390625 -2.078125 C 15.585938 -0.691406 13.507812 0 10.15625 0 C 7.59375 0 5.753906 -0.453125 4.640625 -1.359375 C 3.785156 -2.109375 3.304688 -3.253906 3.203125 -4.796875 C 3.203125 -5.328125 3.203125 -6.097656 3.203125 -7.109375 L 3.203125 -35.171875 C 3.203125 -36.398438 3.238281 -37.320312 3.3125 -37.9375 C 3.394531 -38.550781 3.625 -39.234375 4 -39.984375 C 4.738281 -41.421875 6.816406 -42.140625 10.234375 -42.140625 C 13.429688 -42.140625 15.429688 -41.523438 16.234375 -40.296875 C 16.816406 -39.441406 17.109375 -38.5625 17.109375 -37.65625 C 17.378906 -38.03125 17.765625 -38.484375 18.265625 -39.015625 C 18.773438 -39.546875 19.851562 -40.265625 21.5 -41.171875 C 23.15625 -42.078125 24.609375 -42.53125 25.859375 -42.53125 C 27.117188 -42.53125 28.171875 -42.460938 29.015625 -42.328125 C 29.867188 -42.203125 30.800781 -41.976562 31.8125 -41.65625 Z M 31.8125 -41.65625 "/></g></g></g><g fill="#ffffff" fill-opacity="1"><g transform="translate(560.047075, 261.01318)"><g><path d="M 2 -21.03125 C 2 -27.425781 4.238281 -32.703125 8.71875 -36.859375 C 13.195312 -41.015625 18.3125 -43.09375 24.0625 -43.09375 C 29.820312 -43.09375 34.910156 -41.023438 39.328125 -36.890625 C 43.753906 -32.765625 45.96875 -27.503906 45.96875 -21.109375 C 45.96875 -16.679688 44.820312 -12.75 42.53125 -9.3125 C 40.238281 -5.875 37.453125 -3.34375 34.171875 -1.71875 C 30.898438 -0.09375 27.503906 0.71875 23.984375 0.71875 C 20.460938 0.71875 17.050781 -0.144531 13.75 -1.875 C 10.445312 -3.613281 7.660156 -6.171875 5.390625 -9.546875 C 3.128906 -12.929688 2 -16.757812 2 -21.03125 Z M 18.703125 -15.3125 C 20.410156 -14.007812 22.144531 -13.359375 23.90625 -13.359375 C 25.664062 -13.359375 27.425781 -14.019531 29.1875 -15.34375 C 30.945312 -16.675781 31.828125 -18.648438 31.828125 -21.265625 C 31.828125 -23.878906 31 -25.820312 29.34375 -27.09375 C 27.6875 -28.375 25.898438 -29.015625 23.984375 -29.015625 C 22.066406 -29.015625 20.28125 -28.347656 18.625 -27.015625 C 16.976562 -25.691406 16.15625 -23.734375 16.15625 -21.140625 C 16.15625 -18.554688 17.003906 -16.613281 18.703125 -15.3125 Z M 18.703125 -15.3125 "/></g></g></g><g fill="#ffffff" fill-opacity="1"><g transform="translate(353.926336, 372.708663)"><g><path d="M 7.03125 -58.6875 L 51.484375 -58.6875 C 53.191406 -58.6875 54.445312 -58.484375 55.25 -58.078125 C 56.050781 -57.679688 56.582031 -57.054688 56.84375 -56.203125 C 57.113281 -55.347656 57.25 -54.226562 57.25 -52.84375 C 57.25 -51.457031 57.113281 -50.351562 56.84375 -49.53125 C 56.582031 -48.707031 56.128906 -48.132812 55.484375 -47.8125 C 54.523438 -47.332031 53.164062 -47.09375 51.40625 -47.09375 L 36.140625 -47.09375 L 36.140625 -6.875 C 36.140625 -5.644531 36.097656 -4.738281 36.015625 -4.15625 C 35.941406 -3.570312 35.703125 -2.890625 35.296875 -2.109375 C 34.898438 -1.335938 34.191406 -0.789062 33.171875 -0.46875 C 32.160156 -0.15625 30.828125 0 29.171875 0 C 27.523438 0 26.207031 -0.15625 25.21875 -0.46875 C 24.238281 -0.789062 23.546875 -1.335938 23.140625 -2.109375 C 22.742188 -2.890625 22.503906 -3.582031 22.421875 -4.1875 C 22.347656 -4.800781 22.3125 -5.722656 22.3125 -6.953125 L 22.3125 -47.09375 L 6.953125 -47.09375 C 5.242188 -47.09375 3.988281 -47.289062 3.1875 -47.6875 C 2.394531 -48.09375 1.863281 -48.71875 1.59375 -49.5625 C 1.332031 -50.414062 1.203125 -51.535156 1.203125 -52.921875 C 1.203125 -54.304688 1.332031 -55.410156 1.59375 -56.234375 C 1.863281 -57.066406 2.316406 -57.644531 2.953125 -57.96875 C 3.910156 -58.445312 5.269531 -58.6875 7.03125 -58.6875 Z M 7.03125 -58.6875 "/></g></g></g><g fill="#ffffff" fill-opacity="1"><g transform="translate(415.810459, 372.708663)"><g><path d="M 17.34375 -14.15625 L 41.96875 -14.15625 C 43.195312 -14.15625 44.117188 -14.113281 44.734375 -14.03125 C 45.347656 -13.945312 46.054688 -13.691406 46.859375 -13.265625 C 48.296875 -12.523438 49.015625 -10.445312 49.015625 -7.03125 C 49.015625 -3.300781 48.023438 -1.117188 46.046875 -0.484375 C 45.140625 -0.160156 43.753906 0 41.890625 0 L 10.234375 0 C 6.503906 0 4.316406 -1.007812 3.671875 -3.03125 C 3.359375 -3.882812 3.203125 -5.242188 3.203125 -7.109375 L 3.203125 -51.5625 C 3.203125 -54.28125 3.707031 -56.132812 4.71875 -57.125 C 5.726562 -58.113281 7.644531 -58.609375 10.46875 -58.609375 L 41.96875 -58.609375 C 43.195312 -58.609375 44.117188 -58.566406 44.734375 -58.484375 C 45.347656 -58.398438 46.054688 -58.144531 46.859375 -57.71875 C 48.296875 -56.976562 49.015625 -54.898438 49.015625 -51.484375 C 49.015625 -47.753906 48.023438 -45.570312 46.046875 -44.9375 C 45.140625 -44.613281 43.753906 -44.453125 41.890625 -44.453125 L 17.34375 -44.453125 L 17.34375 -36.375 L 33.1875 -36.375 C 34.40625 -36.375 35.320312 -36.332031 35.9375 -36.25 C 36.550781 -36.175781 37.257812 -35.925781 38.0625 -35.5 C 39.5 -34.75 40.21875 -32.671875 40.21875 -29.265625 C 40.21875 -25.535156 39.203125 -23.347656 37.171875 -22.703125 C 36.265625 -22.390625 34.878906 -22.234375 33.015625 -22.234375 L 17.34375 -22.234375 Z M 17.34375 -14.15625 "/></g></g></g><g fill="#ffffff" fill-opacity="1"><g transform="translate(470.258933, 372.708663)"><g><path d="M 39.8125 -15.34375 L 41.25 -16.390625 C 43.0625 -17.453125 44.34375 -17.984375 45.09375 -17.984375 C 46.75 -17.984375 48.535156 -16.492188 50.453125 -13.515625 C 51.617188 -11.648438 52.203125 -10.15625 52.203125 -9.03125 C 52.203125 -7.914062 51.84375 -6.984375 51.125 -6.234375 C 50.40625 -5.484375 49.566406 -4.816406 48.609375 -4.234375 C 47.648438 -3.648438 46.726562 -3.09375 45.84375 -2.5625 C 44.96875 -2.03125 43.171875 -1.335938 40.453125 -0.484375 C 37.734375 0.367188 35.109375 0.796875 32.578125 0.796875 C 30.046875 0.796875 27.488281 0.460938 24.90625 -0.203125 C 22.320312 -0.867188 19.65625 -1.988281 16.90625 -3.5625 C 14.164062 -5.132812 11.703125 -7.050781 9.515625 -9.3125 C 7.328125 -11.582031 5.523438 -14.488281 4.109375 -18.03125 C 2.703125 -21.570312 2 -25.421875 2 -29.578125 C 2 -33.734375 2.691406 -37.503906 4.078125 -40.890625 C 5.460938 -44.273438 7.234375 -47.070312 9.390625 -49.28125 C 11.546875 -51.5 14.015625 -53.351562 16.796875 -54.84375 C 22.015625 -57.726562 27.265625 -59.171875 32.546875 -59.171875 C 35.046875 -59.171875 37.585938 -58.78125 40.171875 -58 C 42.753906 -57.226562 44.710938 -56.441406 46.046875 -55.640625 L 47.96875 -54.53125 C 48.925781 -53.945312 49.671875 -53.46875 50.203125 -53.09375 C 51.597656 -51.96875 52.296875 -50.695312 52.296875 -49.28125 C 52.296875 -47.875 51.734375 -46.398438 50.609375 -44.859375 C 48.535156 -41.972656 46.671875 -40.53125 45.015625 -40.53125 C 44.054688 -40.53125 42.695312 -41.117188 40.9375 -42.296875 C 38.695312 -44.109375 35.710938 -45.015625 31.984375 -45.015625 C 28.515625 -45.015625 25.101562 -43.816406 21.75 -41.421875 C 20.144531 -40.242188 18.8125 -38.585938 17.75 -36.453125 C 16.6875 -34.328125 16.15625 -31.914062 16.15625 -29.21875 C 16.15625 -26.53125 16.6875 -24.117188 17.75 -21.984375 C 18.8125 -19.847656 20.171875 -18.171875 21.828125 -16.953125 C 25.078125 -14.609375 28.460938 -13.4375 31.984375 -13.4375 C 33.628906 -13.4375 35.1875 -13.648438 36.65625 -14.078125 C 38.125 -14.503906 39.175781 -14.925781 39.8125 -15.34375 Z M 39.8125 -15.34375 "/></g></g></g><g fill="#ffffff" fill-opacity="1"><g transform="translate(527.985484, 372.708663)"><g><path d="M 39.421875 -56.4375 C 39.847656 -57.238281 40.566406 -57.800781 41.578125 -58.125 C 42.585938 -58.445312 43.863281 -58.609375 45.40625 -58.609375 C 46.957031 -58.609375 48.1875 -58.472656 49.09375 -58.203125 C 50 -57.941406 50.691406 -57.625 51.171875 -57.25 C 51.648438 -56.875 52.023438 -56.335938 52.296875 -55.640625 C 52.554688 -54.734375 52.6875 -53.347656 52.6875 -51.484375 L 52.6875 -7.109375 C 52.6875 -5.890625 52.644531 -4.972656 52.5625 -4.359375 C 52.488281 -3.742188 52.238281 -3.035156 51.8125 -2.234375 C 51.0625 -0.796875 48.984375 -0.078125 45.578125 -0.078125 C 41.847656 -0.078125 39.660156 -1.0625 39.015625 -3.03125 C 38.691406 -3.9375 38.53125 -5.328125 38.53125 -7.203125 L 38.53125 -23.421875 L 17.34375 -23.421875 L 17.34375 -7.109375 C 17.34375 -5.890625 17.300781 -4.972656 17.21875 -4.359375 C 17.144531 -3.742188 16.894531 -3.035156 16.46875 -2.234375 C 15.71875 -0.796875 13.640625 -0.078125 10.234375 -0.078125 C 6.503906 -0.078125 4.316406 -1.0625 3.671875 -3.03125 C 3.359375 -3.9375 3.203125 -5.328125 3.203125 -7.203125 L 3.203125 -51.5625 C 3.203125 -52.789062 3.238281 -53.710938 3.3125 -54.328125 C 3.394531 -54.941406 3.648438 -55.648438 4.078125 -56.453125 C 4.828125 -57.890625 6.90625 -58.609375 10.3125 -58.609375 C 14.039062 -58.609375 16.253906 -57.617188 16.953125 -55.640625 C 17.210938 -54.734375 17.34375 -53.347656 17.34375 -51.484375 L 17.34375 -35.171875 L 38.53125 -35.171875 L 38.53125 -51.5625 C 38.53125 -52.789062 38.570312 -53.710938 38.65625 -54.328125 C 38.738281 -54.941406 38.992188 -55.644531 39.421875 -56.4375 Z M 39.421875 -56.4375 "/></g></g></g><g fill="#ffffff" fill-opacity="1"><g transform="translate(587.311105, 372.708663)"><g><path d="M 41.046875 -56.15625 C 41.554688 -57.09375 42.316406 -57.722656 43.328125 -58.046875 C 44.347656 -58.367188 45.613281 -58.53125 47.125 -58.53125 C 48.644531 -58.53125 49.867188 -58.394531 50.796875 -58.125 C 51.734375 -57.851562 52.425781 -57.53125 52.875 -57.15625 C 53.332031 -56.789062 53.671875 -56.234375 53.890625 -55.484375 C 54.210938 -54.628906 54.375 -53.269531 54.375 -51.40625 L 54.375 -7.03125 C 54.375 -5.75 54.332031 -4.816406 54.25 -4.234375 C 54.164062 -3.648438 53.910156 -2.957031 53.484375 -2.15625 C 52.742188 -0.71875 50.664062 0 47.25 0 C 45.175781 0 43.738281 -0.15625 42.9375 -0.46875 C 42.132812 -0.789062 41.46875 -1.300781 40.9375 -2 C 28.945312 -17.988281 21.054688 -28.4375 17.265625 -33.34375 L 17.265625 -7.03125 C 17.265625 -5.75 17.222656 -4.816406 17.140625 -4.234375 C 17.066406 -3.648438 16.816406 -2.957031 16.390625 -2.15625 C 15.640625 -0.71875 13.5625 0 10.15625 0 C 6.851562 0 4.828125 -0.71875 4.078125 -2.15625 C 3.648438 -2.957031 3.394531 -3.675781 3.3125 -4.3125 C 3.238281 -4.957031 3.203125 -5.890625 3.203125 -7.109375 L 3.203125 -51.734375 C 3.203125 -53.753906 3.453125 -55.226562 3.953125 -56.15625 C 4.460938 -57.09375 5.222656 -57.722656 6.234375 -58.046875 C 7.242188 -58.367188 8.546875 -58.53125 10.140625 -58.53125 C 11.742188 -58.53125 13.007812 -58.378906 13.9375 -58.078125 C 14.875 -57.785156 15.53125 -57.457031 15.90625 -57.09375 C 16.125 -56.925781 16.738281 -56.226562 17.75 -55 C 29 -39.707031 36.515625 -29.609375 40.296875 -24.703125 L 40.296875 -51.734375 C 40.296875 -53.753906 40.546875 -55.226562 41.046875 -56.15625 Z M 41.046875 -56.15625 "/></g></g></g><g fill="#ffffff" fill-opacity="1"><g transform="translate(648.315737, 372.708663)"><g><path d="M 30.703125 -59.328125 C 38.585938 -59.328125 45.4375 -56.472656 51.25 -50.765625 C 57.0625 -45.066406 59.96875 -37.992188 59.96875 -29.546875 C 59.96875 -21.097656 57.191406 -13.898438 51.640625 -7.953125 C 46.097656 -2.015625 39.273438 0.953125 31.171875 0.953125 C 23.078125 0.953125 16.191406 -1.972656 10.515625 -7.828125 C 4.835938 -13.691406 2 -20.675781 2 -28.78125 C 2 -33.207031 2.796875 -37.351562 4.390625 -41.21875 C 5.992188 -45.082031 8.128906 -48.316406 10.796875 -50.921875 C 13.460938 -53.535156 16.523438 -55.585938 19.984375 -57.078125 C 23.453125 -58.578125 27.023438 -59.328125 30.703125 -59.328125 Z M 16.15625 -29.171875 C 16.15625 -24.429688 17.6875 -20.582031 20.75 -17.625 C 23.8125 -14.664062 27.234375 -13.1875 31.015625 -13.1875 C 34.804688 -13.1875 38.21875 -14.625 41.25 -17.5 C 44.289062 -20.382812 45.8125 -24.25 45.8125 -29.09375 C 45.8125 -33.945312 44.28125 -37.835938 41.21875 -40.765625 C 38.15625 -43.703125 34.726562 -45.171875 30.9375 -45.171875 C 27.15625 -45.171875 23.742188 -43.691406 20.703125 -40.734375 C 17.671875 -37.773438 16.15625 -33.921875 16.15625 -29.171875 Z M 16.15625 -29.171875 "/></g></g></g><g fill="#ffffff" fill-opacity="1"><g transform="translate(713.717814, 372.708663)"><g><path d="M 17.34375 -11.828125 L 39.09375 -11.828125 C 40.851562 -11.828125 42.132812 -11.628906 42.9375 -11.234375 C 43.738281 -10.835938 44.269531 -10.210938 44.53125 -9.359375 C 44.800781 -8.503906 44.9375 -7.367188 44.9375 -5.953125 C 44.9375 -4.546875 44.800781 -3.414062 44.53125 -2.5625 C 44.269531 -1.707031 43.816406 -1.117188 43.171875 -0.796875 C 42.160156 -0.265625 40.773438 0 39.015625 0 L 10.234375 0 C 6.503906 0 4.316406 -1.007812 3.671875 -3.03125 C 3.359375 -3.882812 3.203125 -5.242188 3.203125 -7.109375 L 3.203125 -51.5625 C 3.203125 -52.789062 3.238281 -53.710938 3.3125 -54.328125 C 3.394531 -54.941406 3.648438 -55.648438 4.078125 -56.453125 C 4.828125 -57.890625 6.90625 -58.609375 10.3125 -58.609375 C 14.039062 -58.609375 16.253906 -57.617188 16.953125 -55.640625 C 17.210938 -54.734375 17.34375 -53.347656 17.34375 -51.484375 Z M 17.34375 -11.828125 "/></g></g></g><g fill="#ffffff" fill-opacity="1"><g transform="translate(764.08866, 372.708663)"><g><path d="M 30.703125 -59.328125 C 38.585938 -59.328125 45.4375 -56.472656 51.25 -50.765625 C 57.0625 -45.066406 59.96875 -37.992188 59.96875 -29.546875 C 59.96875 -21.097656 57.191406 -13.898438 51.640625 -7.953125 C 46.097656 -2.015625 39.273438 0.953125 31.171875 0.953125 C 23.078125 0.953125 16.191406 -1.972656 10.515625 -7.828125 C 4.835938 -13.691406 2 -20.675781 2 -28.78125 C 2 -33.207031 2.796875 -37.351562 4.390625 -41.21875 C 5.992188 -45.082031 8.128906 -48.316406 10.796875 -50.921875 C 13.460938 -53.535156 16.523438 -55.585938 19.984375 -57.078125 C 23.453125 -58.578125 27.023438 -59.328125 30.703125 -59.328125 Z M 16.15625 -29.171875 C 16.15625 -24.429688 17.6875 -20.582031 20.75 -17.625 C 23.8125 -14.664062 27.234375 -13.1875 31.015625 -13.1875 C 34.804688 -13.1875 38.21875 -14.625 41.25 -17.5 C 44.289062 -20.382812 45.8125 -24.25 45.8125 -29.09375 C 45.8125 -33.945312 44.28125 -37.835938 41.21875 -40.765625 C 38.15625 -43.703125 34.726562 -45.171875 30.9375 -45.171875 C 27.15625 -45.171875 23.742188 -43.691406 20.703125 -40.734375 C 17.671875 -37.773438 16.15625 -33.921875 16.15625 -29.171875 Z M 16.15625 -29.171875 "/></g></g></g><g fill="#ffffff" fill-opacity="1"><g transform="translate(829.490714, 372.708663)"><g><path d="M 33.734375 -35.34375 L 47.8125 -35.34375 C 50.6875 -35.226562 52.445312 -34.476562 53.09375 -33.09375 C 53.625 -32.082031 53.890625 -30.59375 53.890625 -28.625 L 53.890625 -11.03125 C 53.890625 -9.320312 53.144531 -7.695312 51.65625 -6.15625 C 47.175781 -1.519531 40.457031 0.796875 31.5 0.796875 C 23.5625 0.796875 16.660156 -2.195312 10.796875 -8.1875 C 4.929688 -14.1875 2 -21.421875 2 -29.890625 C 2 -38.367188 4.984375 -45.445312 10.953125 -51.125 C 16.921875 -56.800781 23.957031 -59.640625 32.0625 -59.640625 C 38.351562 -59.640625 44.296875 -57.5625 49.890625 -53.40625 C 51.328125 -52.34375 52.046875 -51.15625 52.046875 -49.84375 C 52.046875 -48.539062 51.429688 -47.035156 50.203125 -45.328125 C 48.128906 -42.503906 46.238281 -41.09375 44.53125 -41.09375 C 43.519531 -41.09375 41.894531 -41.828125 39.65625 -43.296875 C 37.414062 -44.765625 34.75 -45.5 31.65625 -45.5 C 27.601562 -45.5 24.003906 -44.070312 20.859375 -41.21875 C 17.722656 -38.363281 16.15625 -34.628906 16.15625 -30.015625 C 16.15625 -25.410156 17.753906 -21.492188 20.953125 -18.265625 C 24.148438 -15.046875 27.773438 -13.4375 31.828125 -13.4375 C 34.753906 -13.4375 37.390625 -13.914062 39.734375 -14.875 L 39.734375 -23.59375 L 33.421875 -23.59375 C 31.765625 -23.59375 30.585938 -23.800781 29.890625 -24.21875 C 29.203125 -24.644531 28.75 -25.269531 28.53125 -26.09375 C 28.320312 -26.925781 28.21875 -28.046875 28.21875 -29.453125 C 28.21875 -30.867188 28.335938 -32.003906 28.578125 -32.859375 C 28.816406 -33.710938 29.257812 -34.300781 29.90625 -34.625 C 30.863281 -35.101562 32.140625 -35.34375 33.734375 -35.34375 Z M 33.734375 -35.34375 "/></g></g></g><g fill="#ffffff" fill-opacity="1"><g transform="translate(890.015616, 372.708663)"><g><path d="M 3.203125 -51.5625 C 3.203125 -52.789062 3.238281 -53.710938 3.3125 -54.328125 C 3.394531 -54.941406 3.648438 -55.648438 4.078125 -56.453125 C 4.828125 -57.890625 6.90625 -58.609375 10.3125 -58.609375 C 14.039062 -58.609375 16.253906 -57.617188 16.953125 -55.640625 C 17.210938 -54.734375 17.34375 -53.347656 17.34375 -51.484375 L 17.34375 -7.03125 C 17.34375 -5.75 17.300781 -4.816406 17.21875 -4.234375 C 17.144531 -3.648438 16.894531 -2.957031 16.46875 -2.15625 C 15.71875 -0.71875 13.640625 0 10.234375 0 C 6.503906 0 4.316406 -1.007812 3.671875 -3.03125 C 3.359375 -3.882812 3.203125 -5.242188 3.203125 -7.109375 Z M 3.203125 -51.5625 "/></g></g></g><g fill="#ffffff" fill-opacity="1"><g transform="translate(914.00194, 372.708663)"><g><path d="M 17.34375 -14.15625 L 41.96875 -14.15625 C 43.195312 -14.15625 44.117188 -14.113281 44.734375 -14.03125 C 45.347656 -13.945312 46.054688 -13.691406 46.859375 -13.265625 C 48.296875 -12.523438 49.015625 -10.445312 49.015625 -7.03125 C 49.015625 -3.300781 48.023438 -1.117188 46.046875 -0.484375 C 45.140625 -0.160156 43.753906 0 41.890625 0 L 10.234375 0 C 6.503906 0 4.316406 -1.007812 3.671875 -3.03125 C 3.359375 -3.882812 3.203125 -5.242188 3.203125 -7.109375 L 3.203125 -51.5625 C 3.203125 -54.28125 3.707031 -56.132812 4.71875 -57.125 C 5.726562 -58.113281 7.644531 -58.609375 10.46875 -58.609375 L 41.96875 -58.609375 C 43.195312 -58.609375 44.117188 -58.566406 44.734375 -58.484375 C 45.347656 -58.398438 46.054688 -58.144531 46.859375 -57.71875 C 48.296875 -56.976562 49.015625 -54.898438 49.015625 -51.484375 C 49.015625 -47.753906 48.023438 -45.570312 46.046875 -44.9375 C 45.140625 -44.613281 43.753906 -44.453125 41.890625 -44.453125 L 17.34375 -44.453125 L 17.34375 -36.375 L 33.1875 -36.375 C 34.40625 -36.375 35.320312 -36.332031 35.9375 -36.25 C 36.550781 -36.175781 37.257812 -35.925781 38.0625 -35.5 C 39.5 -34.75 40.21875 -32.671875 40.21875 -29.265625 C 40.21875 -25.535156 39.203125 -23.347656 37.171875 -22.703125 C 36.265625 -22.390625 34.878906 -22.234375 33.015625 -22.234375 L 17.34375 -22.234375 Z M 17.34375 -14.15625 "/></g></g></g><g fill="#ffffff" fill-opacity="1"><g transform="translate(968.450432, 372.708663)"><g><path d="M 4.078125 -8.234375 C 2.691406 -9.941406 2 -11.472656 2 -12.828125 C 2 -14.191406 3.144531 -15.992188 5.4375 -18.234375 C 6.769531 -19.503906 8.179688 -20.140625 9.671875 -20.140625 C 11.160156 -20.140625 13.238281 -18.8125 15.90625 -16.15625 C 16.65625 -15.25 17.722656 -14.378906 19.109375 -13.546875 C 20.492188 -12.722656 21.773438 -12.3125 22.953125 -12.3125 C 27.898438 -12.3125 30.375 -14.335938 30.375 -18.390625 C 30.375 -19.617188 29.691406 -20.644531 28.328125 -21.46875 C 26.972656 -22.289062 25.285156 -22.890625 23.265625 -23.265625 C 21.242188 -23.640625 19.054688 -24.238281 16.703125 -25.0625 C 14.359375 -25.882812 12.171875 -26.851562 10.140625 -27.96875 C 8.117188 -29.09375 6.425781 -30.867188 5.0625 -33.296875 C 3.707031 -35.722656 3.03125 -38.644531 3.03125 -42.0625 C 3.03125 -46.75 4.773438 -50.835938 8.265625 -54.328125 C 11.765625 -57.816406 16.523438 -59.5625 22.546875 -59.5625 C 25.742188 -59.5625 28.660156 -59.148438 31.296875 -58.328125 C 33.941406 -57.503906 35.769531 -56.664062 36.78125 -55.8125 L 38.78125 -54.28125 C 40.425781 -52.738281 41.25 -51.429688 41.25 -50.359375 C 41.25 -49.296875 40.613281 -47.832031 39.34375 -45.96875 C 37.53125 -43.300781 35.660156 -41.96875 33.734375 -41.96875 C 32.617188 -41.96875 31.234375 -42.503906 29.578125 -43.578125 C 29.421875 -43.679688 29.113281 -43.945312 28.65625 -44.375 C 28.207031 -44.800781 27.796875 -45.144531 27.421875 -45.40625 C 26.304688 -46.101562 24.878906 -46.453125 23.140625 -46.453125 C 21.410156 -46.453125 19.972656 -46.035156 18.828125 -45.203125 C 17.679688 -44.378906 17.109375 -43.234375 17.109375 -41.765625 C 17.109375 -40.304688 17.785156 -39.125 19.140625 -38.21875 C 20.503906 -37.3125 22.195312 -36.695312 24.21875 -36.375 C 26.25 -36.0625 28.460938 -35.570312 30.859375 -34.90625 C 33.253906 -34.238281 35.460938 -33.421875 37.484375 -32.453125 C 39.515625 -31.492188 41.207031 -29.828125 42.5625 -27.453125 C 43.925781 -25.085938 44.609375 -22.171875 44.609375 -18.703125 C 44.609375 -15.242188 43.914062 -12.191406 42.53125 -9.546875 C 41.144531 -6.910156 39.332031 -4.875 37.09375 -3.4375 C 32.78125 -0.613281 28.171875 0.796875 23.265625 0.796875 C 20.765625 0.796875 18.394531 0.488281 16.15625 -0.125 C 13.914062 -0.738281 12.101562 -1.5 10.71875 -2.40625 C 7.882812 -4.101562 5.910156 -5.753906 4.796875 -7.359375 Z M 4.078125 -8.234375 "/></g></g></g></svg>